<svg width="573" height="517" viewBox="0 0 723 667" fill="none" xmlns="http://www.w3.org/2000/svg">
<path d="M92.6201 445.861C176.139 515.691 376.957 565.621 506.036 488.978C471.01 466.607 507.26 385.171 528.754 359.477C572.682 300.281 597.892 305.603 515.906 237.055C412.725 150.787 363.079 -64.929 250.281 69.9102C137.482 204.749 -10.5604 359.594 92.6201 445.861Z" fill="url(#paint0_linear)"/>
<path fill-rule="evenodd" clip-rule="evenodd" d="M519.163 505.526C510.304 507.923 501.796 506.853 494.193 500.733C466.632 478.545 492.415 406.569 492.415 406.569C492.415 406.569 553.754 261.25 610.148 300.061C619.025 306.17 624.045 314.654 626.463 324.191L627.016 323.81C629.968 328.089 632.889 331.837 635.777 335.542C637.651 337.946 639.51 340.332 641.356 342.833C646.011 349.144 650.435 356.022 654.357 365.327C660.855 380.746 665.282 392.735 664.163 411.006C664.146 411.277 664.128 411.546 664.11 411.814L664.147 411.754L707.103 438.673C712.054 441.776 713.714 448.208 710.883 453.32L704.195 465.397L704.755 465.722L721.02 475.17C722.92 476.273 723.565 478.707 722.461 480.606C721.357 482.505 718.923 483.15 717.024 482.047L700.758 472.598L700.341 472.356L693.847 484.083L694.466 484.443L710.318 493.651C712.217 494.754 712.862 497.188 711.759 499.086C710.655 500.985 708.221 501.63 706.322 500.527L690.47 491.319L689.993 491.043L682.801 504.03C680.09 508.926 674.134 511.007 668.963 508.864L618.839 488.091C616.453 489.744 614.112 491.218 611.859 492.529C605.905 495.993 600.564 498.322 596.647 499.817C594.688 500.565 593.086 501.104 591.943 501.471C591.463 501.625 591.063 501.749 590.756 501.845L590.591 501.896L590.471 501.933L590.409 501.953C590.331 501.977 590.267 501.998 590.215 502.015C590.17 502.03 590.144 502.039 590.131 502.044L590.129 502.044L590.129 502.044L590.122 502.047C589.941 502.13 589.702 502.189 589.531 502.229C589.303 502.283 589.009 502.344 588.66 502.41C587.962 502.543 587.01 502.705 585.862 502.886C583.562 503.249 580.448 503.693 576.932 504.142C569.905 505.039 561.24 505.961 554.243 506.292C547.381 506.617 538.6 506.617 531.548 506.536C528.019 506.496 524.918 506.435 522.699 506.384C521.589 506.359 520.7 506.336 520.088 506.32L519.688 506.309L519.385 506.3L519.202 506.295L519.156 506.293L519.144 506.293L519.141 506.293L519.14 506.293C519.14 506.293 519.14 506.293 519.141 506.27C519.141 506.253 519.142 506.224 519.144 506.171L519.163 505.526ZM706.04 440.368L663.937 413.983C663.588 417.836 663.037 421.308 662.289 424.562L696.386 447.438C698.152 448.622 698.682 450.98 697.594 452.806L673.132 493.854C672.117 495.558 670.006 496.261 668.172 495.506L629.506 479.589C626.596 482.251 623.657 484.621 620.764 486.725L669.729 507.017C673.96 508.77 678.833 507.068 681.051 503.062L709.133 452.351C711.45 448.169 710.091 442.907 706.04 440.368ZM631.111 478.087C637.36 472.106 643.403 464.735 648.47 455.689C654.719 444.533 659.195 436.465 661.78 426.629L695.272 449.098C696.154 449.69 696.42 450.869 695.875 451.782L671.414 492.831C670.906 493.683 669.851 494.034 668.934 493.657L631.111 478.087ZM522.73 504.385C563.538 489.355 610.148 406.569 610.148 406.569C610.148 406.569 633.595 361.579 627.2 327.54C629.567 330.826 631.942 333.874 634.267 336.86C636.135 339.257 637.97 341.613 639.746 344.02C644.338 350.247 648.67 356.986 652.513 366.104C658.982 381.452 663.257 393.088 662.166 410.884C661.06 428.927 655.908 438.317 646.725 454.712C636.618 472.754 622.539 484.001 610.853 490.8C605.01 494.2 599.77 496.485 595.934 497.949C594.016 498.681 592.449 499.208 591.331 499.567C590.861 499.718 590.471 499.839 590.164 499.934L589.997 499.986C589.835 500.037 589.696 500.08 589.589 500.116L589.586 500.117L589.586 500.117C589.511 500.141 589.383 500.184 589.278 500.234C589.287 500.229 589.292 500.227 589.292 500.227C589.292 500.226 589.286 500.228 589.273 500.231C589.244 500.239 589.182 500.257 589.072 500.283C588.885 500.327 588.622 500.382 588.286 500.445C587.617 500.573 586.689 500.731 585.55 500.911C583.274 501.27 580.18 501.711 576.679 502.158C569.673 503.053 561.068 503.967 554.148 504.295C547.348 504.617 538.616 504.617 531.571 504.537C528.051 504.496 524.958 504.436 522.744 504.385L522.73 504.385ZM608.389 405.617L608.4 405.596C608.418 405.561 608.445 405.507 608.482 405.435C608.555 405.292 608.665 405.075 608.806 404.791C609.09 404.222 609.503 403.378 610.015 402.293C611.04 400.121 612.461 396.981 614.042 393.123C617.207 385.4 620.995 374.836 623.515 363.427C626.04 351.999 627.266 339.847 625.411 328.898C623.564 317.996 618.682 308.362 609.014 301.708C602.297 297.086 595.59 295.25 588.971 295.493C582.322 295.737 575.625 298.084 568.986 302.047C555.665 309.998 542.905 324.252 531.764 339.92C520.649 355.55 511.27 372.408 504.662 385.378C501.361 391.858 498.756 397.358 496.978 401.235C496.09 403.173 495.408 404.705 494.949 405.751C494.719 406.274 494.545 406.675 494.429 406.944L494.366 407.091L494.299 407.248L494.279 407.295C494.268 407.328 494.251 407.375 494.229 407.438C494.183 407.57 494.114 407.769 494.024 408.03C493.845 408.553 493.585 409.327 493.263 410.321C492.619 412.311 491.728 415.184 490.743 418.702C488.771 425.743 486.432 435.345 484.948 445.617C483.461 455.906 482.848 466.768 484.266 476.367C485.688 485.982 489.107 494.07 495.448 499.175C505.375 507.167 517.067 505.975 529.608 498.982C542.189 491.967 555.142 479.33 566.884 465.435C578.597 451.573 588.98 436.61 596.442 425.097C600.171 419.345 603.165 414.461 605.226 411.018C606.256 409.297 607.053 407.936 607.591 407.007C607.86 406.543 608.065 406.186 608.201 405.947C608.27 405.827 608.321 405.737 608.355 405.676L608.389 405.617ZM504.501 405.693L504.505 405.683L502.657 404.917C502.657 404.917 475.723 467.969 499.712 487.299C537.406 517.674 601.87 404.917 601.87 404.917C601.87 404.917 642.268 331.298 603.579 312.123C551.764 286.443 502.657 404.917 502.657 404.917C504.505 405.683 504.505 405.683 504.505 405.682L504.507 405.679L504.513 405.664L504.538 405.603L504.556 405.561C504.578 405.509 504.606 405.441 504.642 405.357C504.734 405.138 504.873 404.812 505.057 404.386C505.426 403.534 505.974 402.285 506.691 400.701C508.125 397.534 510.233 393.033 512.925 387.709C518.312 377.054 526.019 363.142 535.318 350.048C544.638 336.924 555.453 324.77 567.017 317.48C578.516 310.231 590.546 307.897 602.691 313.915C611.671 318.366 616.093 325.938 617.663 335.051C619.247 344.251 617.896 354.936 615.294 365.22C612.699 375.474 608.904 385.164 605.748 392.306C604.172 395.872 602.759 398.793 601.742 400.819C601.234 401.832 600.825 402.62 600.544 403.153C600.404 403.42 600.296 403.623 600.223 403.757L600.184 403.829L600.141 403.908L600.124 403.94L600.123 403.942L600.089 404.001L600.031 404.102L599.953 404.236C599.832 404.445 599.651 404.756 599.412 405.162C598.936 405.973 598.229 407.161 597.317 408.664C595.49 411.671 592.838 415.937 589.537 420.963C582.93 431.02 573.745 444.091 563.405 456.2C553.037 468.342 541.632 479.37 530.605 485.493C519.611 491.598 509.486 492.607 500.966 485.742C495.557 481.383 492.864 474.437 492.042 466.076C491.222 457.73 492.3 448.258 494.148 439.262C495.992 430.284 498.581 421.887 500.714 415.725C501.779 412.647 502.728 410.134 503.409 408.393C503.75 407.523 504.024 406.846 504.211 406.389C504.305 406.16 504.377 405.987 504.426 405.871L504.48 405.742L504.493 405.711L504.496 405.704L504.497 405.703L504.501 405.693ZM720.015 476.899L703.75 467.451L701.763 470.869L718.029 480.317C718.973 480.866 720.183 480.545 720.731 479.601C721.28 478.657 720.96 477.448 720.015 476.899ZM693.461 486.172L709.313 495.38C710.257 495.928 710.578 497.138 710.029 498.082C709.481 499.026 708.271 499.346 707.327 498.798L691.475 489.59L693.461 486.172Z" fill="black"/>
<g filter="url(#filter0_i)">
<path d="M575.345 337.328C572.704 344.896 575.975 352.918 582.651 355.247C589.327 357.575 596.879 353.327 599.52 345.759C602.161 338.191 598.89 330.169 592.214 327.84C585.539 325.512 577.986 329.76 575.345 337.328Z" fill="white"/>
</g>
<path d="M576.289 337.657C573.79 344.818 576.934 352.194 582.98 354.303C589.027 356.411 596.077 352.591 598.576 345.43C601.075 338.269 597.931 330.893 591.885 328.785C585.839 326.676 578.788 330.496 576.289 337.657Z" stroke="black" stroke-width="2"/>
<g filter="url(#filter1_i)">
<path d="M575.015 382.29C570.816 391.032 572.196 400.416 578.097 403.249C583.999 406.082 592.187 401.291 596.386 392.549C600.585 383.807 599.204 374.424 593.303 371.591C587.402 368.758 579.214 373.548 575.015 382.29Z" fill="white"/>
</g>
<path d="M575.916 382.723C573.892 386.939 573.233 391.269 573.758 394.84C574.284 398.417 575.97 401.118 578.53 402.347C581.091 403.577 584.253 403.203 587.375 401.377C590.491 399.554 593.459 396.332 595.484 392.116C597.509 387.901 598.168 383.57 597.643 380C597.116 376.422 595.431 373.721 592.87 372.492C590.309 371.263 587.147 371.636 584.026 373.463C580.91 375.286 577.941 378.507 575.916 382.723Z" stroke="black" stroke-width="2"/>
<g filter="url(#filter2_i)">
<path d="M546.141 430.884C541.942 439.627 543.322 449.01 549.223 451.843C555.125 454.676 563.312 449.886 567.511 441.143C571.71 432.401 570.33 423.018 564.429 420.185C558.527 417.352 550.339 422.142 546.141 430.884Z" fill="white"/>
</g>
<path d="M547.042 431.317C545.017 435.533 544.359 439.864 544.884 443.434C545.41 447.012 547.095 449.712 549.656 450.942C552.217 452.171 555.379 451.797 558.501 449.971C561.616 448.148 564.585 444.926 566.61 440.711C568.635 436.495 569.293 432.164 568.768 428.594C568.242 425.016 566.556 422.316 563.996 421.086C561.435 419.857 558.273 420.231 555.151 422.057C552.036 423.88 549.067 427.102 547.042 431.317Z" stroke="black" stroke-width="2"/>
<g filter="url(#filter3_i)">
<path d="M506.613 455.026C502.642 462.535 503.581 470.821 508.711 473.532C513.84 476.243 521.218 472.354 525.189 464.844C529.16 457.335 528.221 449.05 523.091 446.338C517.962 443.627 510.584 447.517 506.613 455.026Z" fill="white"/>
</g>
<path d="M507.497 455.493C505.593 459.093 504.889 462.841 505.243 465.965C505.598 469.096 506.991 471.492 509.178 472.648C511.365 473.804 514.131 473.606 516.918 472.136C519.7 470.67 522.401 467.977 524.305 464.377C526.209 460.777 526.914 457.029 526.559 453.905C526.205 450.775 524.811 448.378 522.624 447.222C520.437 446.066 517.671 446.265 514.884 447.734C512.102 449.201 509.401 451.893 507.497 455.493Z" stroke="black" stroke-width="2"/>
<g filter="url(#filter4_i)">
<path d="M529.535 418.633C532.677 410.741 530.854 402.604 525.462 400.459C520.071 398.314 513.154 402.972 510.012 410.864C506.87 418.756 508.693 426.893 514.084 429.038C519.475 431.183 526.392 426.525 529.535 418.633Z" fill="white"/>
</g>
<path d="M528.605 418.263C530.112 414.48 530.41 410.678 529.723 407.61C529.034 404.536 527.391 402.303 525.093 401.388C522.794 400.473 520.066 400.967 517.452 402.727C514.844 404.484 512.447 407.45 510.941 411.234C509.434 415.017 509.136 418.819 509.824 421.887C510.512 424.961 512.155 427.194 514.454 428.109C516.752 429.024 519.481 428.53 522.094 426.77C524.702 425.013 527.099 422.047 528.605 418.263Z" stroke="black" stroke-width="2"/>
<g filter="url(#filter5_i)">
<path d="M554.813 372.651C559.764 365.748 559.954 357.411 555.239 354.031C550.523 350.651 542.687 353.507 537.736 360.411C532.786 367.314 532.595 375.65 537.311 379.03C542.026 382.41 549.862 379.554 554.813 372.651Z" fill="white"/>
</g>
<path d="M554 372.068C556.374 368.759 557.579 365.141 557.651 361.997C557.723 358.848 556.667 356.285 554.656 354.844C552.645 353.403 549.879 353.225 546.918 354.304C543.963 355.381 540.923 357.684 538.549 360.993C536.176 364.303 534.97 367.921 534.898 371.064C534.826 374.214 535.883 376.776 537.893 378.217C539.904 379.659 542.671 379.836 545.631 378.757C548.586 377.68 551.627 375.378 554 372.068Z" stroke="black" stroke-width="2"/>
<defs>
<filter id="filter0_i" x="574.43" y="327.203" width="26.0052" height="32.6816" filterUnits="userSpaceOnUse" color-interpolation-filters="sRGB">
<feFlood flood-opacity="0" result="BackgroundImageFix"/>
<feBlend mode="normal" in="SourceGraphic" in2="BackgroundImageFix" result="shape"/>
<feColorMatrix in="SourceAlpha" type="matrix" values="0 0 0 0 0 0 0 0 0 0 0 0 0 0 0 0 0 0 127 0" result="hardAlpha"/>
<feOffset dy="4"/>
<feGaussianBlur stdDeviation="2"/>
<feComposite in2="hardAlpha" operator="arithmetic" k2="-1" k3="1"/>
<feColorMatrix type="matrix" values="0 0 0 0 0.858333 0 0 0 0 0.809802 0 0 0 0 0.436319 0 0 0 1 0"/>
<feBlend mode="normal" in2="shape" result="effect1_innerShadow"/>
</filter>
<filter id="filter1_i" x="572.585" y="370.776" width="26.2303" height="37.2878" filterUnits="userSpaceOnUse" color-interpolation-filters="sRGB">
<feFlood flood-opacity="0" result="BackgroundImageFix"/>
<feBlend mode="normal" in="SourceGraphic" in2="BackgroundImageFix" result="shape"/>
<feColorMatrix in="SourceAlpha" type="matrix" values="0 0 0 0 0 0 0 0 0 0 0 0 0 0 0 0 0 0 127 0" result="hardAlpha"/>
<feOffset dy="4"/>
<feGaussianBlur stdDeviation="2"/>
<feComposite in2="hardAlpha" operator="arithmetic" k2="-1" k3="1"/>
<feColorMatrix type="matrix" values="0 0 0 0 0.858333 0 0 0 0 0.809802 0 0 0 0 0.436319 0 0 0 1 0"/>
<feBlend mode="normal" in2="shape" result="effect1_innerShadow"/>
</filter>
<filter id="filter2_i" x="543.711" y="419.37" width="26.2303" height="37.2878" filterUnits="userSpaceOnUse" color-interpolation-filters="sRGB">
<feFlood flood-opacity="0" result="BackgroundImageFix"/>
<feBlend mode="normal" in="SourceGraphic" in2="BackgroundImageFix" result="shape"/>
<feColorMatrix in="SourceAlpha" type="matrix" values="0 0 0 0 0 0 0 0 0 0 0 0 0 0 0 0 0 0 127 0" result="hardAlpha"/>
<feOffset dy="4"/>
<feGaussianBlur stdDeviation="2"/>
<feComposite in2="hardAlpha" operator="arithmetic" k2="-1" k3="1"/>
<feColorMatrix type="matrix" values="0 0 0 0 0.858333 0 0 0 0 0.809802 0 0 0 0 0.436319 0 0 0 1 0"/>
<feBlend mode="normal" in2="shape" result="effect1_innerShadow"/>
</filter>
<filter id="filter3_i" x="504.154" y="445.475" width="23.4932" height="32.9194" filterUnits="userSpaceOnUse" color-interpolation-filters="sRGB">
<feFlood flood-opacity="0" result="BackgroundImageFix"/>
<feBlend mode="normal" in="SourceGraphic" in2="BackgroundImageFix" result="shape"/>
<feColorMatrix in="SourceAlpha" type="matrix" values="0 0 0 0 0 0 0 0 0 0 0 0 0 0 0 0 0 0 127 0" result="hardAlpha"/>
<feOffset dy="4"/>
<feGaussianBlur stdDeviation="2"/>
<feComposite in2="hardAlpha" operator="arithmetic" k2="-1" k3="1"/>
<feColorMatrix type="matrix" values="0 0 0 0 0.858333 0 0 0 0 0.809802 0 0 0 0 0.436319 0 0 0 1 0"/>
<feBlend mode="normal" in2="shape" result="effect1_innerShadow"/>
</filter>
<filter id="filter4_i" x="508.473" y="399.937" width="22.6005" height="33.6236" filterUnits="userSpaceOnUse" color-interpolation-filters="sRGB">
<feFlood flood-opacity="0" result="BackgroundImageFix"/>
<feBlend mode="normal" in="SourceGraphic" in2="BackgroundImageFix" result="shape"/>
<feColorMatrix in="SourceAlpha" type="matrix" values="0 0 0 0 0 0 0 0 0 0 0 0 0 0 0 0 0 0 127 0" result="hardAlpha"/>
<feOffset dy="4"/>
<feGaussianBlur stdDeviation="2"/>
<feComposite in2="hardAlpha" operator="arithmetic" k2="-1" k3="1"/>
<feColorMatrix type="matrix" values="0 0 0 0 0.858333 0 0 0 0 0.809802 0 0 0 0 0.436319 0 0 0 1 0"/>
<feBlend mode="normal" in2="shape" result="effect1_innerShadow"/>
</filter>
<filter id="filter5_i" x="533.895" y="352.61" width="24.7596" height="31.8407" filterUnits="userSpaceOnUse" color-interpolation-filters="sRGB">
<feFlood flood-opacity="0" result="BackgroundImageFix"/>
<feBlend mode="normal" in="SourceGraphic" in2="BackgroundImageFix" result="shape"/>
<feColorMatrix in="SourceAlpha" type="matrix" values="0 0 0 0 0 0 0 0 0 0 0 0 0 0 0 0 0 0 127 0" result="hardAlpha"/>
<feOffset dy="4"/>
<feGaussianBlur stdDeviation="2"/>
<feComposite in2="hardAlpha" operator="arithmetic" k2="-1" k3="1"/>
<feColorMatrix type="matrix" values="0 0 0 0 0.858333 0 0 0 0 0.809802 0 0 0 0 0.436319 0 0 0 1 0"/>
<feBlend mode="normal" in2="shape" result="effect1_innerShadow"/>
</filter>
<linearGradient id="paint0_linear" x1="279.695" y1="256.344" x2="678.702" y2="489.428" gradientUnits="userSpaceOnUse">
<stop stop-color="white" stop-opacity="0"/>
<stop offset="1" stop-color="#C6D2EB"/>
</linearGradient>
</defs>
</svg>
