<svg width="61" height="59" viewBox="0 0 61 59" fill="none" xmlns="http://www.w3.org/2000/svg">
<path d="M13 33L15 33.5V45L13 44V33Z" fill="#A07F5A"/>
<path d="M15 33.5L16.5 33V44L15 45V33.5Z" fill="#826C53"/>
<path d="M37 44L39 44.5V56L37 55V44Z" fill="#A07F5A"/>
<path d="M39 44.5L40.5 44V55L39 56V44.5Z" fill="#826C53"/>
<path d="M57 33L59 33.5V45L57 44V33Z" fill="#A07F5A"/>
<path d="M59 33.5L60.5 33V44L59 45V33.5Z" fill="#826C53"/>
<path fill-rule="evenodd" clip-rule="evenodd" d="M35.1053 0.306748L26.8947 4.87975V18.9036L13 26.5253V36.281L38.8947 50L38.5789 40.5492L38.8947 50L61 38.7199V14.6355L35.1053 0.306748Z" fill="#EDA47E"/>
<path d="M35.1053 0L26.8947 4.60123L52.7895 19.0184L61 14.4172L35.1053 0Z" fill="#E9D5AA"/>
<path d="M26.8947 18.7117V4.90797L52.7895 19.3252V32.8221L26.8947 18.7117Z" fill="#CAB88E"/>
<path d="M13 26.3804L26.8947 18.7117L52.7895 32.8221L38.5789 40.4908L13 26.3804Z" fill="#E9D5AA"/>
<path d="M61 38.6503V14.7239L53.1053 19.3252V33.1288L38.8947 40.7975V50L61 38.6503Z" fill="#BBAB85"/>
<path d="M13 26.6871L38.5789 40.7975V50L13 36.1963V26.6871Z" fill="#CAB88E"/>
<path d="M19.72 39.25L22.0057 40.01V57.49L19.72 55.97V39.25Z" fill="#A07F5A"/>
<path d="M22.0057 40.01L23.72 39.25V55.97L22.0057 57.49V40.01Z" fill="#826C53"/>
<path d="M7 33L9.28571 33.76V51.24L7 49.72V33Z" fill="#A07F5A"/>
<path d="M9.28571 33.76L11 33V49.72L9.28571 51.24V33.76Z" fill="#826C53"/>
<path d="M27.8513 53L3.14343 39.6229C1.85227 38.9239 1.04786 37.5736 1.04786 36.1054V15.2698C1.02673 14.7091 1.62371 14.3384 2.11687 14.606L29 29.1919L28.9092 51.2705C28.9062 51.999 28.4985 52.6655 27.8513 53Z" fill="#CAB88E"/>
<path d="M27.8513 53L3.14343 39.6229C1.85227 38.9239 1.04786 37.5736 1.04786 36.1054V15.2698M27.8513 53V29.7619M27.8513 53V53C28.4985 52.6655 28.9062 51.999 28.9092 51.2705L29 29.1919M1.04786 15.2698L27.8513 29.7619M1.04786 15.2698V15.2698C1.02673 14.7091 1.62371 14.3384 2.11687 14.606L29 29.1919M27.8513 29.7619L29 29.1919" stroke="#998C6C" stroke-width="0.5"/>
</svg>
