<svg width="35" height="44" viewBox="0 0 48 57" fill="none" xmlns="http://www.w3.org/2000/svg">
<path d="M0 33L2 33.5V45L0 44V33Z" fill="#A07F5A"/>
<path d="M2 33.5L3.5 33V44L2 45V33.5Z" fill="#826C53"/>
<path d="M24 44L26 44.5V56L24 55V44Z" fill="#A07F5A"/>
<path d="M26 44.5L27.5 44V55L26 56V44.5Z" fill="#826C53"/>
<path d="M44 33L46 33.5V45L44 44V33Z" fill="#A07F5A"/>
<path d="M46 33.5L47.5 33V44L46 45V33.5Z" fill="#826C53"/>
<path fill-rule="evenodd" clip-rule="evenodd" d="M22.1053 0.306749L13.8947 4.87975V18.9036L0 26.5253V36.281L25.8947 50L25.5789 40.5492L25.8947 50L48 38.7199V14.6355L22.1053 0.306749Z" fill="#EDA47E"/>
<path d="M22.1053 0L13.8947 4.60123L39.7895 19.0184L48 14.4172L22.1053 0Z" fill="#E9D5AA"/>
<path d="M13.8947 18.7117V4.90797L39.7895 19.3252V32.8221L13.8947 18.7117Z" fill="#CAB88E"/>
<path d="M0 26.3804L13.8947 18.7117L39.7895 32.8221L25.5789 40.4908L0 26.3804Z" fill="#E9D5AA"/>
<path d="M48 38.6503V14.7239L40.1053 19.3251V33.1288L25.8947 40.7975V50L48 38.6503Z" fill="#BBAB85"/>
<path d="M0 26.6871L25.5789 40.7975V50L0 36.1963V26.6871Z" fill="#CAB88E"/>
</svg>
