<svg width="1440" height="2584" viewBox="0 0 1440 2584" fill="none" xmlns="http://www.w3.org/2000/svg">
<path d="M438.969 1149.48C458.459 1149.56 476.449 1159.96 486.259 1176.8L541.576 1271.76C551.545 1288.87 551.543 1310.03 541.569 1327.14L503.873 1391.82C493.992 1408.77 475.828 1419.17 456.206 1419.12L346.49 1418.82C326.97 1418.77 308.94 1408.37 299.115 1391.51L243.754 1296.47C233.823 1279.42 233.784 1258.36 243.653 1241.28L281.067 1176.5C290.935 1159.42 309.198 1148.93 328.927 1149.01L438.969 1149.48Z" fill="url(#paint0_linear)" fill-opacity="0.14"/>
<path d="M467.874 1100.7C487.364 1100.78 505.354 1111.17 515.165 1128.01L602.457 1277.87C612.427 1294.98 612.424 1316.13 602.451 1333.25L539.184 1441.8C529.303 1458.75 511.139 1469.15 491.517 1469.1L318.447 1468.63C298.927 1468.58 280.897 1458.18 271.072 1441.32L183.735 1291.39C173.804 1274.34 173.766 1253.28 183.634 1236.19L246.447 1127.45C256.315 1110.36 274.578 1099.87 294.307 1099.96L467.874 1100.7Z" fill="url(#paint1_linear)" fill-opacity="0.11"/>
<path d="M483.383 1072.36C502.873 1072.45 520.863 1082.84 530.673 1099.68L636.092 1280.65C646.061 1297.76 646.059 1318.92 636.085 1336.03L558.324 1469.45C548.443 1486.4 530.279 1496.81 510.656 1496.75L301.674 1496.19C282.153 1496.13 264.124 1485.74 254.298 1468.87L148.836 1287.83C138.905 1270.78 138.866 1249.72 148.735 1232.63L225.945 1098.96C235.813 1081.88 254.076 1071.39 273.806 1071.47L483.383 1072.36Z" fill="url(#paint2_linear)" fill-opacity="0.1"/>
<path d="M1230.02 447.679C1249.51 447.763 1267.5 458.154 1277.31 474.995L1447.35 766.916C1457.32 784.03 1457.32 805.183 1447.35 822.295L1317.9 1044.39C1308.02 1061.35 1289.86 1071.75 1270.24 1071.7L933.198 1070.78C913.678 1070.73 895.648 1060.34 885.823 1043.47L715.73 751.473C705.799 734.425 705.76 713.363 715.628 696.279L844.176 473.729C854.044 456.645 872.307 446.155 892.037 446.239L1230.02 447.679Z" fill="url(#paint3_linear)" fill-opacity="0.15"/>
<path d="M1275.15 370.675C1294.64 370.758 1312.63 381.149 1322.44 397.99L1542.43 775.641C1552.4 792.756 1552.39 813.909 1542.42 831.021L1373.04 1121.64C1363.16 1138.59 1344.99 1149 1325.37 1148.94L889.389 1147.76C869.869 1147.71 851.839 1137.31 842.014 1120.45L621.981 742.72C612.05 725.672 612.011 704.611 621.88 687.527L790.095 396.301C799.963 379.217 818.226 368.727 837.956 368.811L1275.15 370.675Z" fill="url(#paint4_linear)" fill-opacity="0.07"/>
<path d="M1294.05 336.288C1313.53 336.371 1331.53 346.762 1341.34 363.603L1583.47 779.274C1593.44 796.389 1593.44 817.542 1583.46 834.654L1396.37 1155.66C1386.49 1172.61 1368.33 1183.02 1348.7 1182.96L868.841 1181.66C849.32 1181.61 831.291 1171.22 821.465 1154.35L579.285 738.602C569.354 721.554 569.315 700.493 579.184 683.408L764.991 361.727C774.859 344.642 793.122 334.152 812.852 334.236L1294.05 336.288Z" fill="url(#paint5_linear)" fill-opacity="0.08"/>
<path d="M346.054 -147.516C365.543 -147.433 383.534 -137.042 393.344 -120.201L546.436 142.61C556.405 159.725 556.403 180.877 546.429 197.989L430.544 396.821C420.663 413.774 402.499 424.178 382.877 424.125L79.4372 423.303C59.9168 423.251 41.887 412.855 32.0615 395.988L-121.075 133.102C-131.005 116.054 -131.044 94.9926 -121.176 77.9084L-6.0971 -121.323C3.77102 -138.407 22.034 -148.897 41.7633 -148.813L346.054 -147.516Z" fill="url(#paint6_linear)" fill-opacity="0.06"/>
<path d="M387.399 -218.057C406.888 -217.974 424.879 -207.583 434.689 -190.742L633.528 150.603C643.498 167.718 643.495 188.871 633.522 205.983L481.052 467.583C471.172 484.535 453.007 494.94 433.385 494.887L39.3054 493.82C19.7851 493.767 1.75526 483.371 -8.07027 466.504L-206.954 125.084C-216.885 108.036 -216.923 86.9748 -207.055 69.8905L-55.6385 -192.252C-45.7704 -209.336 -27.5074 -219.826 -7.7781 -219.742L387.399 -218.057Z" fill="url(#paint7_linear)" fill-opacity="0.04"/>
<path d="M404.708 -249.558C424.198 -249.475 442.189 -239.083 451.999 -222.242L671.127 153.931C681.096 171.046 681.094 192.199 671.12 209.311L502.426 498.748C492.546 515.7 474.381 526.105 454.759 526.052L20.4817 524.876C0.961295 524.823 -17.0684 514.427 -26.894 497.56L-246.066 121.311C-255.997 104.263 -256.035 83.2023 -246.167 66.1179L-78.6353 -223.924C-68.7671 -241.008 -50.5042 -251.498 -30.7749 -251.414L404.708 -249.558Z" fill="url(#paint8_linear)" fill-opacity="0.02"/>
<path d="M556.054 1827.48C575.543 1827.57 593.534 1837.96 603.344 1854.8L756.436 2117.61C766.405 2134.72 766.403 2155.88 756.429 2172.99L640.544 2371.82C630.663 2388.77 612.499 2399.18 592.877 2399.13L289.437 2398.3C269.917 2398.25 251.887 2387.86 242.061 2370.99L88.9255 2108.1C78.9947 2091.05 78.956 2069.99 88.8241 2052.91L203.903 1853.68C213.771 1836.59 232.034 1826.1 251.763 1826.19L556.054 1827.48Z" fill="url(#paint9_linear)" fill-opacity="0.19"/>
<path d="M597.399 1756.94C616.888 1757.03 634.879 1767.42 644.689 1784.26L843.528 2125.6C853.498 2142.72 853.495 2163.87 843.522 2180.98L691.052 2442.58C681.172 2459.54 663.007 2469.94 643.385 2469.89L249.305 2468.82C229.785 2468.77 211.755 2458.37 201.93 2441.5L3.04605 2100.08C-6.88472 2083.04 -6.9234 2061.97 2.94472 2044.89L154.361 1782.75C164.23 1765.66 182.493 1755.17 202.222 1755.26L597.399 1756.94Z" fill="url(#paint10_linear)" fill-opacity="0.12"/>
<path d="M614.708 1725.44C634.198 1725.53 652.189 1735.92 661.999 1752.76L881.127 2128.93C891.096 2146.05 891.094 2167.2 881.12 2184.31L712.426 2473.75C702.546 2490.7 684.381 2501.11 664.759 2501.05L230.482 2499.88C210.961 2499.82 192.932 2489.43 183.106 2472.56L-36.0661 2096.31C-45.9968 2079.26 -46.0355 2058.2 -36.1673 2041.12L131.365 1751.08C141.233 1733.99 159.496 1723.5 179.225 1723.59L614.708 1725.44Z" fill="url(#paint11_linear)" fill-opacity="0.08"/>
<path d="M1169.23 1509.98C1188.72 1510.06 1206.71 1520.45 1216.52 1537.29L1348.16 1763.27C1358.13 1780.39 1358.12 1801.54 1348.15 1818.65L1249.42 1988.04C1239.54 2005 1221.38 2015.4 1201.76 2015.35L940.827 2014.64C921.306 2014.59 903.276 2004.19 893.451 1987.33L761.77 1761.27C751.84 1744.22 751.801 1723.16 761.669 1706.08L859.705 1536.35C869.574 1519.27 887.836 1508.78 907.566 1508.86L1169.23 1509.98Z" fill="url(#paint12_linear)" fill-opacity="0.11"/>
<path d="M1144.57 1552.67C1164.06 1552.75 1182.05 1563.14 1191.86 1579.98L1295.81 1758.43C1305.78 1775.54 1305.78 1796.69 1295.81 1813.81L1219.22 1945.21C1209.34 1962.16 1191.17 1972.57 1171.55 1972.51L965.483 1971.95C945.963 1971.9 927.933 1961.51 918.108 1944.64L814.116 1766.12C804.185 1749.07 804.147 1728.01 814.015 1710.92L890.057 1579.27C899.926 1562.19 918.188 1551.7 937.918 1551.78L1144.57 1552.67Z" fill="url(#paint13_linear)" fill-opacity="0.11"/>
<path d="M1117.86 1598.91C1137.35 1598.99 1155.34 1609.38 1165.15 1626.22L1239.11 1753.18C1249.08 1770.29 1249.07 1791.44 1239.1 1808.56L1186.5 1898.8C1176.62 1915.76 1158.46 1926.16 1138.83 1926.11L992.193 1925.71C972.673 1925.66 954.643 1915.26 944.818 1898.4L870.82 1771.37C860.889 1754.32 860.851 1733.26 870.719 1716.17L922.937 1625.77C932.805 1608.69 951.068 1598.2 970.797 1598.28L1117.86 1598.91Z" fill="url(#paint14_linear)" fill-opacity="0.15"/>
<path d="M1090.67 1646.09C1110.16 1646.18 1128.15 1656.57 1137.96 1673.41L1180.85 1747.03C1190.82 1764.15 1190.81 1785.3 1180.84 1802.41L1153.08 1850.04C1143.2 1866.99 1125.04 1877.39 1105.42 1877.34L1020.33 1877.11C1000.81 1877.06 982.776 1866.66 972.951 1849.8L930.02 1776.1C920.089 1759.05 920.05 1737.99 929.918 1720.9L957.46 1673.22C967.328 1656.14 985.591 1645.65 1005.32 1645.73L1090.67 1646.09Z" fill="url(#paint15_linear)" fill-opacity="0.15"/>
<defs>
<linearGradient id="paint0_linear" x1="470.399" y1="1149.6" x2="315.003" y2="1418.75" gradientUnits="userSpaceOnUse">
<stop stop-color="#2F93C2"/>
<stop offset="1" stop-color="#5D9C6B" stop-opacity="0"/>
</linearGradient>
<linearGradient id="paint1_linear" x1="499.295" y1="1100.81" x2="286.97" y2="1468.57" gradientUnits="userSpaceOnUse">
<stop stop-color="#2F93C2"/>
<stop offset="1" stop-color="#5D9C6B" stop-opacity="0"/>
</linearGradient>
<linearGradient id="paint2_linear" x1="514.798" y1="1072.47" x2="270.202" y2="1496.13" gradientUnits="userSpaceOnUse">
<stop stop-color="#2F93C2"/>
<stop offset="1" stop-color="#5D9C6B" stop-opacity="0"/>
</linearGradient>
<linearGradient id="paint3_linear" x1="1261.41" y1="447.778" x2="901.746" y2="1070.73" gradientUnits="userSpaceOnUse">
<stop stop-color="#2F93C2"/>
<stop offset="1" stop-color="#5D9C6B" stop-opacity="0"/>
</linearGradient>
<linearGradient id="paint4_linear" x1="1306.53" y1="370.764" x2="857.952" y2="1147.72" gradientUnits="userSpaceOnUse">
<stop stop-color="#2F93C2"/>
<stop offset="1" stop-color="#5D9C6B" stop-opacity="0"/>
</linearGradient>
<linearGradient id="paint5_linear" x1="1325.42" y1="336.373" x2="837.411" y2="1181.63" gradientUnits="userSpaceOnUse">
<stop stop-color="#2F93C2"/>
<stop offset="1" stop-color="#5D9C6B" stop-opacity="0"/>
</linearGradient>
<linearGradient id="paint6_linear" x1="377.454" y1="-147.415" x2="47.98" y2="423.251" gradientUnits="userSpaceOnUse">
<stop stop-color="#2F93C2"/>
<stop offset="1" stop-color="#5D9C6B" stop-opacity="0"/>
</linearGradient>
<linearGradient id="paint7_linear" x1="418.785" y1="-217.964" x2="7.8622" y2="493.775" gradientUnits="userSpaceOnUse">
<stop stop-color="#2F93C2"/>
<stop offset="1" stop-color="#5D9C6B" stop-opacity="0"/>
</linearGradient>
<linearGradient id="paint8_linear" x1="436.088" y1="-249.468" x2="-10.9554" y2="524.835" gradientUnits="userSpaceOnUse">
<stop stop-color="#2F93C2"/>
<stop offset="1" stop-color="#5D9C6B" stop-opacity="0"/>
</linearGradient>
<linearGradient id="paint9_linear" x1="587.454" y1="1827.59" x2="257.98" y2="2398.25" gradientUnits="userSpaceOnUse">
<stop stop-color="#2F93C2"/>
<stop offset="1" stop-color="#5D9C6B" stop-opacity="0"/>
</linearGradient>
<linearGradient id="paint10_linear" x1="628.785" y1="1757.04" x2="217.862" y2="2468.77" gradientUnits="userSpaceOnUse">
<stop stop-color="#2F93C2"/>
<stop offset="1" stop-color="#5D9C6B" stop-opacity="0"/>
</linearGradient>
<linearGradient id="paint11_linear" x1="646.088" y1="1725.53" x2="199.045" y2="2499.83" gradientUnits="userSpaceOnUse">
<stop stop-color="#2F93C2"/>
<stop offset="1" stop-color="#5D9C6B" stop-opacity="0"/>
</linearGradient>
<linearGradient id="paint12_linear" x1="1200.64" y1="1510.08" x2="909.363" y2="2014.58" gradientUnits="userSpaceOnUse">
<stop stop-color="#2F93C2"/>
<stop offset="1" stop-color="#5D9C6B" stop-opacity="0"/>
</linearGradient>
<linearGradient id="paint13_linear" x1="1175.99" y1="1552.78" x2="934.011" y2="1971.89" gradientUnits="userSpaceOnUse">
<stop stop-color="#2F93C2"/>
<stop offset="1" stop-color="#5D9C6B" stop-opacity="0"/>
</linearGradient>
<linearGradient id="paint14_linear" x1="1149.29" y1="1599.02" x2="960.712" y2="1925.65" gradientUnits="userSpaceOnUse">
<stop stop-color="#2F93C2"/>
<stop offset="1" stop-color="#5D9C6B" stop-opacity="0"/>
</linearGradient>
<linearGradient id="paint15_linear" x1="1122.1" y1="1646.22" x2="988.836" y2="1877.04" gradientUnits="userSpaceOnUse">
<stop stop-color="#2F93C2"/>
<stop offset="1" stop-color="#5D9C6B" stop-opacity="0"/>
</linearGradient>
</defs>
</svg>
