<svg width="197" height="192" viewBox="0 0 197 192" fill="none" xmlns="http://www.w3.org/2000/svg">
<path d="M194.065 20.0024L179.107 22.6015C177.02 22.736 174.933 22.5861 172.9 22.1596C172.827 22.148 172.758 22.1327 172.685 22.1173C171.375 21.8329 170.083 21.4332 168.834 20.9183L120.089 0.868895C116.991 -0.407008 113.498 -0.2725 110.508 1.23783L52.7924 30.3569C50.4673 31.5328 48.9993 33.9156 48.9993 36.5212C48.9993 40.4257 52.1929 43.4272 55.8899 43.4272C56.4472 43.4272 57.0159 43.358 57.5847 43.2158L102.679 32.2899L102.849 32.2477L196.766 62.2045V22.2741C196.766 20.8429 195.475 19.7573 194.065 20.0024Z" fill="#D9A065"/>
<path d="M194.065 20.0024L179.107 22.6015C177.02 22.736 174.933 22.5861 172.9 22.1596C172.827 22.148 172.758 22.1327 172.685 22.1173C171.375 21.8329 170.083 21.4332 168.834 20.9183L120.089 0.868895C116.991 -0.407008 113.498 -0.2725 110.508 1.23783L52.7924 30.3569C50.4673 31.5328 48.9993 33.9156 48.9993 36.5212C48.9993 38.9723 50.2583 41.0664 52.1095 42.2862C52.3285 42.1421 52.5545 42.006 52.7924 41.8861L110.508 12.7671C113.498 11.2567 116.991 11.1222 120.089 12.3981L168.834 32.4475C170.083 32.9625 171.375 33.3621 172.685 33.6465C172.758 33.6619 172.827 33.6773 172.9 33.6888C174.933 34.1154 177.02 34.2653 179.107 34.1308L194.065 31.5317C195.475 31.2865 196.766 32.3722 196.766 33.8033V22.2741C196.766 20.8429 195.475 19.7573 194.065 20.0024Z" fill="#B27B4D"/>
<path d="M142.813 33.9078C142.813 30.4867 140.569 27.4706 137.292 26.4887C135.016 25.8066 132.739 25.1244 130.461 24.4423L126.095 23.1356L112.61 19.0965C111.025 18.3875 109.315 18.2491 107.751 18.605C107.751 18.605 105.483 19.1434 103.759 21.0796C101.397 23.7336 101.071 28.0867 102.679 32.2898C130.934 52.564 146.982 60.7571 150.828 56.8717C153.333 54.3411 150.661 46.686 142.813 33.9078Z" fill="#B27B4D"/>
<path d="M142.813 33.9078C138.697 32.6742 134.581 31.4405 130.461 30.2069L126.095 28.9002L112.61 24.8612C109.439 23.4431 105.773 24.3078 103.759 26.8442C103.675 26.948 103.594 27.0556 103.521 27.167C102.43 28.7196 102.199 30.595 102.679 32.2898C103.098 33.7925 104.078 35.1529 105.516 36.0253L146.856 64.1528C155.03 69.7138 165.079 71.789 174.783 69.9251L194.904 65.9771C195.986 65.765 196.766 64.8169 196.766 63.7143V61.189L142.813 33.9078Z" fill="#D9A065"/>
<path d="M2.70053 170.999L17.659 168.4C19.7458 168.266 21.8325 168.416 23.8655 168.842C23.9386 168.854 24.0077 168.869 24.0807 168.885C25.3912 169.169 26.6825 169.569 27.9315 170.084L76.6772 190.133C79.7747 191.409 83.268 191.274 86.258 189.764L143.973 160.645C146.298 159.469 147.766 157.086 147.766 154.481C147.766 150.576 144.573 147.575 140.876 147.575C140.319 147.575 139.75 147.644 139.181 147.786L94.0863 158.712L93.9172 158.754L0 128.797V168.728C0 170.159 1.29051 171.245 2.70053 170.999Z" fill="#D9A065"/>
<path d="M144.656 148.716C144.437 148.86 144.211 148.996 143.973 149.116L86.258 178.235C83.268 179.745 79.7747 179.88 76.6772 178.604L27.9315 158.554C26.6825 158.039 25.3912 157.64 24.0807 157.355C24.0077 157.34 23.9386 157.325 23.8655 157.313C21.8325 156.886 19.7458 156.737 17.659 156.871L2.70053 159.47C1.29051 159.715 0 158.63 0 157.199V168.728C0 170.159 1.29051 171.245 2.70053 170.999L17.659 168.4C19.7458 168.266 21.8325 168.416 23.8655 168.842C23.9386 168.854 24.0077 168.869 24.0807 168.885C25.3912 169.169 26.6825 169.569 27.9315 170.084L76.6772 190.133C79.7747 191.409 83.268 191.274 86.258 189.764L143.973 160.645C146.298 159.469 147.766 157.086 147.766 154.481C147.766 152.03 146.507 149.936 144.656 148.716Z" fill="#B37B4D"/>
<path d="M53.953 157.094C53.953 160.515 56.1966 163.531 59.4736 164.513C61.7498 165.195 64.0265 165.877 66.3046 166.56L70.6704 167.866L84.1558 171.905C85.741 172.614 87.45 172.753 89.0149 172.397C89.0149 172.397 91.2831 171.858 93.0064 169.922C95.3687 167.268 95.695 162.915 94.0863 158.712C65.8316 138.438 49.7832 130.245 45.9375 134.13C43.4325 136.661 46.1046 144.316 53.953 157.094Z" fill="#B37B4D"/>
<path d="M53.953 157.094C58.069 158.328 62.1849 159.561 66.3047 160.795L70.6704 162.102L84.1558 166.141C87.3263 167.559 90.9926 166.694 93.0064 164.158C93.091 164.054 93.1717 163.946 93.2447 163.835C94.3361 162.282 94.5667 160.407 94.0863 158.712C93.6674 157.209 92.6874 155.849 91.2501 154.976L49.9101 126.849C41.7359 121.288 31.6862 119.213 21.9824 121.077L1.86197 125.025C0.780145 125.237 0 126.185 0 127.287V129.812L53.953 157.094Z" fill="#D9A065"/>
<path d="M127.133 124.272C143.023 108.382 143.023 82.6195 127.133 66.7296C111.243 50.8398 85.4804 50.8397 69.5905 66.7296C53.7006 82.6195 53.7006 108.382 69.5905 124.272C85.4804 140.162 111.243 140.162 127.133 124.272Z" fill="#FEDF30"/>
<path d="M110.566 56.662C120.849 64.0476 127.548 76.1091 127.548 89.7363C127.548 112.211 109.329 130.431 86.8532 130.431C82.6089 130.431 78.5168 129.781 74.6703 128.575C81.3473 133.371 89.5346 136.196 98.3825 136.196C120.858 136.196 139.078 117.976 139.078 95.5009C139.078 77.2701 127.089 61.8398 110.566 56.662Z" fill="#FAC600"/>
<path d="M105.86 67.8538C108.162 67.8353 109.697 69.9471 108.926 71.9378C106.876 77.2282 104.608 82.4521 102.397 87.6771C102.263 87.9934 102.359 88.1252 102.621 88.2767C106.762 90.6674 110.894 93.0744 115.039 95.4578C117.081 96.6323 117.407 99.0219 115.703 100.638C108.195 107.761 100.675 114.87 93.1575 121.983C91.8965 123.176 90.6552 123.447 89.3624 122.821C87.9543 122.139 87.2633 120.537 87.8382 119.052C88.6226 117.025 89.4819 115.027 90.3163 113.02C91.6625 109.783 93.0095 106.545 94.3738 103.315C94.5129 102.985 94.3965 102.868 94.1424 102.722C89.9496 100.311 85.7153 97.9478 81.5748 95.4482C79.6471 94.2846 79.4196 91.9118 81.0625 90.355C88.5754 83.2368 96.1097 76.1414 103.608 69.0075C104.3 68.3495 105.059 67.8799 105.86 67.8538Z" fill="#63A171"/>
<path d="M115.039 95.4582C110.894 93.0744 106.762 90.6678 102.621 88.277C102.359 88.1256 102.263 87.9938 102.397 87.6775C104.608 82.4525 106.877 77.2286 108.926 71.9382C109.697 69.9471 108.162 67.8353 105.86 67.8541C105.059 67.8803 104.3 68.3503 103.608 69.0078C100.906 71.5785 98.1966 74.1414 95.4876 76.7051C95.0687 78.041 92.4473 83.4763 91.4454 86.4381C91.1091 87.4327 91.5204 88.5241 92.4292 89.0495C96.1232 91.1855 99.8114 93.3307 103.51 95.4578C105.553 96.6323 105.878 99.0219 104.174 100.638C99.3891 105.177 94.5967 109.708 89.8063 114.241C89.1365 115.839 88.464 117.436 87.8387 119.052C87.2641 120.537 87.9551 122.14 89.3628 122.821C90.6557 123.447 91.897 123.176 93.1579 121.984C100.675 114.871 108.195 107.761 115.703 100.639C117.407 99.0223 117.081 96.6327 115.039 95.4582Z" fill="#588F65"/>
</svg>
