<svg width="194" height="194" viewBox="0 0 194 194" fill="none" xmlns="http://www.w3.org/2000/svg">
<path d="M97.0001 80.8334C79.1682 80.8334 64.6667 66.3319 64.6667 48.5001C64.6667 30.6682 79.1682 16.1667 97.0001 16.1667C114.832 16.1667 129.333 30.6682 129.333 48.5001C129.333 66.3319 114.832 80.8334 97.0001 80.8334ZM97.0001 28.2917C85.8532 28.2917 76.7917 37.3532 76.7917 48.5001C76.7917 59.647 85.8532 68.7084 97.0001 68.7084C108.147 68.7084 117.208 59.647 117.208 48.5001C117.208 37.3532 108.147 28.2917 97.0001 28.2917Z" fill="#0F3A50"/>
<path d="M155.604 161.667C152.258 161.667 149.542 158.951 149.542 155.604V135.396C149.542 120.91 137.756 109.125 123.271 109.125H70.7291C56.2438 109.125 44.4583 120.91 44.4583 135.396V155.604C44.4583 158.951 41.7423 161.667 38.3958 161.667C35.0493 161.667 32.3333 158.951 32.3333 155.604V135.396C32.3333 114.226 49.5589 97 70.7291 97H123.271C144.441 97 161.667 114.226 161.667 135.396V155.604C161.667 158.951 158.951 161.667 155.604 161.667Z" fill="#0F3A50"/>
<path d="M6.0625 52.5417C2.716 52.5417 0 49.8257 0 46.4792V22.2292C0 9.96675 9.96675 0 22.2292 0H46.4792C49.8257 0 52.5417 2.716 52.5417 6.0625C52.5417 9.409 49.8257 12.125 46.4792 12.125H22.2292C16.6598 12.125 12.125 16.6597 12.125 22.2292V46.4792C12.125 49.8257 9.409 52.5417 6.0625 52.5417Z" fill="#FF7070"/>
<path d="M46.4792 194H22.2292C9.96675 194 0 184.033 0 171.771V147.521C0 144.174 2.716 141.458 6.0625 141.458C9.409 141.458 12.125 144.174 12.125 147.521V171.771C12.125 177.34 16.6598 181.875 22.2292 181.875H46.4792C49.8257 181.875 52.5417 184.591 52.5417 187.937C52.5417 191.284 49.8257 194 46.4792 194Z" fill="#FF7070"/>
<path d="M187.938 52.5417C184.591 52.5417 181.875 49.8257 181.875 46.4792V22.2292C181.875 16.6597 177.34 12.125 171.771 12.125H147.521C144.174 12.125 141.458 9.409 141.458 6.0625C141.458 2.716 144.174 0 147.521 0H171.771C184.033 0 194 9.96675 194 22.2292V46.4792C194 49.8257 191.284 52.5417 187.938 52.5417Z" fill="#FF7070"/>
<path d="M171.771 194H147.521C144.174 194 141.458 191.284 141.458 187.937C141.458 184.591 144.174 181.875 147.521 181.875H171.771C177.34 181.875 181.875 177.34 181.875 171.771V147.521C181.875 144.174 184.591 141.458 187.938 141.458C191.284 141.458 194 144.174 194 147.521V171.771C194 184.033 184.033 194 171.771 194Z" fill="#FF7070"/>
</svg>
