<svg width="115" height="125" viewBox="0 0 115 125" fill="none" xmlns="http://www.w3.org/2000/svg">
<circle cx="41" cy="10" r="10" fill="#73AA7F"/>
<circle cx="19" cy="16" r="9" fill="#82B48D"/>
<circle cx="8" cy="32" r="8" fill="#92BD9C"/>
<circle cx="57" cy="73" r="5" fill="#D0E3D4"/>
<circle cx="10" cy="53" r="8" fill="#A1C7AA"/>
<circle cx="22" cy="70" r="7" fill="#B1D0B8"/>
<circle cx="41" cy="77" r="6" fill="#C1D9C6"/>
<circle cx="69" cy="64" r="4" fill="#E0ECE3"/>
<circle cx="76" cy="53" r="4" fill="#EFF6F1"/>
<rect x="32" y="34" width="3.33333" height="15" rx="1.66667" fill="#EAEAEA"/>
<rect x="38.1111" y="37.3333" width="3.33333" height="12.7778" rx="1.66667" transform="rotate(-90 38.1111 37.3333)" fill="#EAEAEA"/>
<rect x="32" y="49" width="3.33333" height="13.8889" rx="1.66667" transform="rotate(-90 32 49)" fill="#EAEAEA"/>
<rect x="43.1111" y="36.2222" width="3.33333" height="12.7778" rx="1.66667" fill="#EAEAEA"/>
<path d="M13.6348 118H1.65039V98.957H5.53516V114.572H13.6348V118ZM15.793 105.317H19.4619V112.122C19.4619 113.07 19.6608 113.802 20.0586 114.318C20.4564 114.835 21.0277 115.093 21.7725 115.093C22.568 115.093 23.2113 114.813 23.7021 114.255C24.2015 113.696 24.4512 112.981 24.4512 112.109H24.4639V105.305H28.1201V118H24.9209L24.7686 116.438C24.2692 117.014 23.6725 117.463 22.9785 117.784C22.2845 118.097 21.5228 118.254 20.6934 118.254C19.0853 118.254 17.8665 117.733 17.0371 116.692C16.2077 115.651 15.793 114.119 15.793 112.097V105.317ZM35.0898 118H31.4336V105.305H34.8867L34.9756 106.65C35.8727 105.584 37.0872 105.051 38.6191 105.051C40.5742 105.051 41.958 105.884 42.7705 107.552C43.1937 106.748 43.765 106.13 44.4844 105.698C45.2038 105.267 46.0501 105.051 47.0234 105.051C48.5638 105.051 49.7614 105.592 50.6162 106.676C51.471 107.751 51.8984 109.249 51.8984 111.17V118H48.2422V111.17C48.2422 110.188 48.0094 109.452 47.5439 108.961C47.0869 108.47 46.5326 108.225 45.8809 108.225C45.2207 108.225 44.6579 108.479 44.1924 108.986C43.7269 109.494 43.4941 110.252 43.4941 111.259V118H39.8379V111.17C39.8379 110.188 39.6051 109.452 39.1396 108.961C38.6826 108.47 38.1283 108.225 37.4766 108.225C36.8164 108.225 36.2536 108.479 35.7881 108.986C35.3226 109.494 35.0898 110.252 35.0898 111.259V118ZM54.5391 100.988C54.5391 100.379 54.7253 99.888 55.0977 99.5156C55.4701 99.1432 55.9609 98.957 56.5703 98.957C57.1797 98.957 57.6706 99.1432 58.043 99.5156C58.4154 99.888 58.6016 100.379 58.6016 100.988C58.6016 101.598 58.4154 102.089 58.043 102.461C57.6706 102.833 57.1797 103.02 56.5703 103.02C55.9609 103.02 55.4701 102.833 55.0977 102.461C54.7253 102.089 54.5391 101.598 54.5391 100.988ZM54.7422 118V105.305H58.3984V118H54.7422ZM60.7344 105.305H62.8291V102.131H66.4854V105.305H69.5703V108.479H66.4854V113.15C66.4854 113.751 66.6758 114.225 67.0566 114.572C67.446 114.911 67.9368 115.08 68.5293 115.08C68.9694 115.08 69.4222 114.983 69.8877 114.788V117.784C69.0837 118.097 68.2923 118.254 67.5137 118.254C66.0072 118.254 64.8477 117.852 64.0352 117.048C63.2311 116.235 62.8291 115.076 62.8291 113.569V108.479H60.7344V105.305ZM75.2451 112.744C75.4736 113.447 75.8926 114.018 76.502 114.458C77.1198 114.898 77.8392 115.118 78.6602 115.118C79.5404 115.118 80.2682 114.979 80.8438 114.699C81.4277 114.411 81.9567 114.043 82.4307 113.595L84.6396 116.235C83.6579 117.006 82.6846 117.535 81.7197 117.822C80.7633 118.11 79.8451 118.254 78.9648 118.254C77.5599 118.254 76.32 117.97 75.2451 117.403C74.1702 116.828 73.3281 116.041 72.7188 115.042C72.1094 114.035 71.8047 112.892 71.8047 111.614C71.8047 110.353 72.0967 109.232 72.6807 108.25C73.2646 107.26 74.0602 106.481 75.0674 105.914C76.083 105.339 77.234 105.051 78.5205 105.051C79.7985 105.051 80.9326 105.334 81.9229 105.901C82.9215 106.468 83.7087 107.247 84.2842 108.237C84.8597 109.228 85.1475 110.362 85.1475 111.64V112.744H75.2451ZM81.3896 110.713C81.2119 109.968 80.848 109.367 80.2979 108.91C79.7477 108.453 79.0876 108.225 78.3174 108.225C77.5387 108.225 76.8617 108.457 76.2861 108.923C75.7191 109.388 75.3467 109.985 75.1689 110.713H81.3896ZM98.7061 116.375C98.0882 116.967 97.3477 117.429 96.4844 117.759C95.6296 118.089 94.6986 118.254 93.6914 118.254C92.3457 118.254 91.1439 117.97 90.0859 117.403C89.0365 116.828 88.207 116.045 87.5977 115.055C86.9883 114.056 86.6836 112.922 86.6836 111.652C86.6836 110.383 86.9883 109.253 87.5977 108.263C88.207 107.264 89.0365 106.481 90.0859 105.914C91.1439 105.339 92.3457 105.051 93.6914 105.051C94.6986 105.051 95.6296 105.216 96.4844 105.546C97.3477 105.876 98.0882 106.337 98.7061 106.93L96.1289 109.354C95.5195 108.601 94.707 108.225 93.6914 108.225C92.7604 108.225 91.9902 108.55 91.3809 109.202C90.7715 109.854 90.4668 110.671 90.4668 111.652C90.4668 112.634 90.7715 113.451 91.3809 114.103C91.9902 114.754 92.7604 115.08 93.6914 115.08C94.707 115.08 95.5195 114.703 96.1289 113.95L98.7061 116.375ZM101.131 118V98.957H104.787V106.536C105.794 105.546 107.047 105.051 108.545 105.051C111.812 105.051 113.445 107.107 113.445 111.221V118H109.789V111.195C109.789 110.239 109.586 109.507 109.18 108.999C108.782 108.483 108.211 108.225 107.466 108.225C106.67 108.225 106.023 108.504 105.523 109.062C105.033 109.613 104.787 110.328 104.787 111.208V118H101.131Z" fill="white"/>
</svg>
