<svg width="585" height="604" viewBox="0 0 585 604" fill="none" xmlns="http://www.w3.org/2000/svg">
<path d="M292.501 0.0577292L584.915 167.302L583.863 436.576L292.5 603.82L0.0861921 436.576L0.0861639 167.302L292.501 0.0577292Z" fill="#C4C4C4"/>
<path d="M13 174L293 14V270L13 430V174Z" fill="#A4A4A4"/>
<path d="M573 174L293 14V270L573 430V174Z" fill="#E3E2E2"/>
<path d="M573 430L293 270L13 430L293 590L573 430Z" fill="#F1EAD9"/>
<path d="M31 323.5L81 295V391.344L31 419.922V323.5Z" fill="#93774F"/>
<path d="M43 340.132L69.5 326L70 343L43 358.5V340.132Z" fill="#535353"/>
<path d="M43 357.251L69 342.5L70 343L43 358.5V357.251Z" fill="#E8E4E4"/>
<path d="M43 357.251L69 342.5L70 343L43 358.5V357.251Z" fill="#E8E4E4"/>
<path d="M69 342.5L68.5 326.5L69.5 326L70 343L69 342.5Z" fill="#949494"/>
<path d="M69 342.5L68.5 326.5L69.5 326L70 343L69 342.5Z" fill="#949494"/>
</svg>
