<svg width="630" height="604" viewBox="0 0 594 604" fill="none" xmlns="http://www.w3.org/2000/svg">
<path d="M301.501 0.0577155L593.915 167.302L592.863 436.576L301.5 603.82L9.08619 436.576L9.08616 167.302L301.501 0.0577155Z" fill="#C4C4C4"/>
<path d="M22 174L302 14V270L22 430V174Z" fill="#A4A4A4"/>
<path d="M582 174L302 14V270L582 430V174Z" fill="#E3E2E2"/>
<path d="M582 430L302 270L22 430L302 590L582 430Z" fill="#F1EAD9"/>
<path d="M293.299 124.273C293.138 122.515 294.522 121 296.286 121H307.714C309.478 121 310.862 122.515 310.701 124.273L308.851 144.545C308.569 147.635 305.978 150 302.876 150H301.124C298.022 150 295.431 147.635 295.149 144.545L293.299 124.273Z" fill="#C0D7FF"/>
<path d="M301.438 121H296.278C294.517 121 293.134 122.511 293.29 124.266L295 143.5C295 143.5 295.438 147.092 297 148.5C298.515 149.865 302 150 302 150L301.438 121Z" fill="#ADC3E9"/>
<path d="M296.706 127.506C296.706 126.13 298.072 125.151 299.418 125.44C300.267 125.623 301.192 125.767 302 125.767C302.808 125.767 303.733 125.623 304.582 125.44C305.928 125.151 307.294 126.13 307.294 127.506V132.725C307.294 133.583 306.748 134.346 305.921 134.572C304.806 134.875 303.223 135.236 302 135.236C300.777 135.236 299.194 134.875 298.079 134.572C297.252 134.346 296.706 133.583 296.706 132.725V129.426V127.506Z" fill="#DEEAFE"/>
<rect x="300.941" y="137.873" width="1.58824" height="2.10909" fill="#434D5F"/>
<path d="M49 318.5L99 290V386.344L49 414.922V318.5Z" fill="#93774F"/>
<path d="M61 335.132L87.5 321L88 338L61 353.5V335.132Z" fill="#535353"/>
<path d="M61 352.251L87 337.5L88 338L61 353.5V352.251Z" fill="#E8E4E4"/>
<path d="M61 352.251L87 337.5L88 338L61 353.5V352.251Z" fill="#E8E4E4"/>
<path d="M87 337.5L86.5 321.5L87.5 321L88 338L87 337.5Z" fill="#949494"/>
<path d="M87 337.5L86.5 321.5L87.5 321L88 338L87 337.5Z" fill="#949494"/>
</svg>
