<svg width="598" height="604" viewBox="0 0 598 604" fill="none" xmlns="http://www.w3.org/2000/svg">
<path d="M305.501 0.0577155L597.915 167.302L596.863 436.576L305.5 603.82L13.0862 436.576L13.0862 167.302L305.501 0.0577155Z" fill="#C4C4C4"/>
<path d="M26 174L306 14V270L26 430V174Z" fill="#A4A4A4"/>
<path d="M586 174L306 14V270L586 430V174Z" fill="#E3E2E2"/>
<path d="M586 430L306 270L26 430L306 590L586 430Z" fill="#F1EAD9"/>
<path d="M321.5 143L377.5 175L349.5 191L293.5 159L321.5 143Z" fill="white"/>
<path d="M293.5 159L349.5 191V222.5L293.5 190.5V159Z" fill="#F4F4F4"/>
<path d="M349.5 191L377.5 175V206.5L349.5 222.5V191Z" fill="#EBEBEB"/>
<path d="M293.5 175.5L349.5 207.5V220.388L293.5 188.388V175.5Z" fill="#9F9F9F"/>
<path d="M293.5 175L349.5 207L347 216.5L291 184.5L293.5 175Z" fill="#EAEAEA"/>
<path d="M49 320.5L99 292V388.344L49 416.922V320.5Z" fill="#93774F"/>
<path d="M61 337.132L87.5 323L88 340L61 355.5V337.132Z" fill="#535353"/>
<path d="M61 354.251L87 339.5L88 340L61 355.5V354.251Z" fill="#E8E4E4"/>
<path d="M61 354.251L87 339.5L88 340L61 355.5V354.251Z" fill="#E8E4E4"/>
<path d="M87 339.5L86.5 323.5L87.5 323L88 340L87 339.5Z" fill="#949494"/>
<path d="M87 339.5L86.5 323.5L87.5 323L88 340L87 339.5Z" fill="#949494"/>
</svg>
