<svg width="50" height="65" viewBox="0 0 50 65" fill="none" xmlns="http://www.w3.org/2000/svg">
<path d="M22.5 17.5981C24.047 16.7049 25.953 16.7049 27.5 17.5981L43.1506 26.634C44.6976 27.5271 45.6506 29.1778 45.6506 30.9641V49.0359C45.6506 50.8222 44.6976 52.4729 43.1506 53.366L27.5 62.4019C25.953 63.2951 24.047 63.2951 22.5 62.4019L6.84936 53.366C5.30236 52.4729 4.34937 50.8222 4.34937 49.0359V30.9641C4.34937 29.1778 5.30236 27.5271 6.84937 26.634L22.5 17.5981Z" stroke="#63A171" stroke-width="2"/>
<path d="M9 32.5L9.7907 35.2674C9.92551 35.7393 10.2291 36.1451 10.6436 36.4076L23.9299 44.8223C24.5833 45.2361 25.4167 45.2361 26.0701 44.8223L39.3564 36.4076C39.7709 36.1451 40.0745 35.7393 40.2093 35.2674L41 32.5" stroke="#63A171" stroke-width="2.1"/>
<path d="M9 43L9.7907 45.7674C9.92551 46.2393 10.2291 46.6451 10.6436 46.9076L23.9299 55.3223C24.5833 55.7361 25.4167 55.7361 26.0701 55.3223L39.3564 46.9076C39.7709 46.6451 40.0745 46.2393 40.2093 45.7674L41 43" stroke="#63A171" stroke-width="2.1"/>
<path d="M11.036 12.096C10.5 12.096 9.976 12.032 9.464 11.904C8.952 11.768 8.544 11.6 8.24 11.4L8.864 10.056C9.152 10.24 9.5 10.392 9.908 10.512C10.316 10.624 10.716 10.68 11.108 10.68C11.9 10.68 12.296 10.484 12.296 10.092C12.296 9.908 12.188 9.776 11.972 9.696C11.756 9.616 11.424 9.548 10.976 9.492C10.448 9.412 10.012 9.32 9.668 9.216C9.324 9.112 9.024 8.928 8.768 8.664C8.52 8.4 8.396 8.024 8.396 7.536C8.396 7.128 8.512 6.768 8.744 6.456C8.984 6.136 9.328 5.888 9.776 5.712C10.232 5.536 10.768 5.448 11.384 5.448C11.84 5.448 12.292 5.5 12.74 5.604C13.196 5.7 13.572 5.836 13.868 6.012L13.244 7.344C12.676 7.024 12.056 6.864 11.384 6.864C10.984 6.864 10.684 6.92 10.484 7.032C10.284 7.144 10.184 7.288 10.184 7.464C10.184 7.664 10.292 7.804 10.508 7.884C10.724 7.964 11.068 8.04 11.54 8.112C12.068 8.2 12.5 8.296 12.836 8.4C13.172 8.496 13.464 8.676 13.712 8.94C13.96 9.204 14.084 9.572 14.084 10.044C14.084 10.444 13.964 10.8 13.724 11.112C13.484 11.424 13.132 11.668 12.668 11.844C12.212 12.012 11.668 12.096 11.036 12.096ZM18.359 12.096C17.671 12.096 17.051 11.956 16.499 11.676C15.955 11.388 15.527 10.992 15.215 10.488C14.911 9.984 14.759 9.412 14.759 8.772C14.759 8.132 14.911 7.56 15.215 7.056C15.527 6.552 15.955 6.16 16.499 5.88C17.051 5.592 17.671 5.448 18.359 5.448C19.039 5.448 19.631 5.592 20.135 5.88C20.647 6.16 21.019 6.564 21.251 7.092L19.799 7.872C19.463 7.28 18.979 6.984 18.347 6.984C17.859 6.984 17.455 7.144 17.135 7.464C16.815 7.784 16.655 8.22 16.655 8.772C16.655 9.324 16.815 9.76 17.135 10.08C17.455 10.4 17.859 10.56 18.347 10.56C18.987 10.56 19.471 10.264 19.799 9.672L21.251 10.464C21.019 10.976 20.647 11.376 20.135 11.664C19.631 11.952 19.039 12.096 18.359 12.096ZM24.1168 6.396C24.3408 6.084 24.6408 5.848 25.0168 5.688C25.4008 5.528 25.8408 5.448 26.3368 5.448V7.176C26.1288 7.16 25.9888 7.152 25.9168 7.152C25.3808 7.152 24.9608 7.304 24.6568 7.608C24.3528 7.904 24.2008 8.352 24.2008 8.952V12H22.3288V5.544H24.1168V6.396ZM30.4633 12.096C29.7833 12.096 29.1713 11.956 28.6273 11.676C28.0913 11.388 27.6713 10.992 27.3673 10.488C27.0633 9.984 26.9113 9.412 26.9113 8.772C26.9113 8.132 27.0633 7.56 27.3673 7.056C27.6713 6.552 28.0913 6.16 28.6273 5.88C29.1713 5.592 29.7833 5.448 30.4633 5.448C31.1433 5.448 31.7513 5.592 32.2873 5.88C32.8233 6.16 33.2433 6.552 33.5473 7.056C33.8513 7.56 34.0033 8.132 34.0033 8.772C34.0033 9.412 33.8513 9.984 33.5473 10.488C33.2433 10.992 32.8233 11.388 32.2873 11.676C31.7513 11.956 31.1433 12.096 30.4633 12.096ZM30.4633 10.56C30.9433 10.56 31.3353 10.4 31.6393 10.08C31.9513 9.752 32.1073 9.316 32.1073 8.772C32.1073 8.228 31.9513 7.796 31.6393 7.476C31.3353 7.148 30.9433 6.984 30.4633 6.984C29.9833 6.984 29.5873 7.148 29.2753 7.476C28.9633 7.796 28.8073 8.228 28.8073 8.772C28.8073 9.316 28.9633 9.752 29.2753 10.08C29.5873 10.4 29.9833 10.56 30.4633 10.56ZM35.2546 3.096H37.1266V12H35.2546V3.096ZM38.864 3.096H40.736V12H38.864V3.096Z" fill="#63A171"/>
</svg>
