<svg width="145" height="202" viewBox="0 0 145 202" fill="none" xmlns="http://www.w3.org/2000/svg">
<path d="M88.2609 157.609C88.2609 181.943 68.4652 201.739 44.1304 201.739C19.7957 201.739 0 181.943 0 157.609C0 146.044 4.56277 134.945 12.6087 126.725V31.5217C12.6087 14.1414 26.7501 0 44.1304 0C61.5107 0 75.6522 14.1414 75.6522 31.5217V126.725C83.6981 134.945 88.2609 146.044 88.2609 157.609Z" fill="#A88FE4"/>
<path d="M88.261 157.609C88.261 181.943 68.4653 201.739 44.1305 201.739C41.991 201.739 39.883 201.585 37.8262 201.286C59.1861 198.221 75.6523 179.804 75.6523 157.609C75.6523 146.044 71.0895 134.945 63.0436 126.725V31.5217C63.0436 16.3007 52.1961 3.56196 37.8262 0.634375C39.8633 0.216712 41.9713 0 44.1305 0C61.5108 0 75.6523 14.1414 75.6523 31.5217V126.725C83.6982 134.945 88.261 146.044 88.261 157.609Z" fill="#917CC5"/>
<path d="M44.1305 151.304C40.6489 151.304 37.8262 148.481 37.8262 145V34.6737C37.8262 31.1922 40.6489 28.3694 44.1305 28.3694C47.6121 28.3694 50.4349 31.1922 50.4349 34.6737V145C50.4349 148.481 47.6121 151.304 44.1305 151.304Z" fill="#634B9D"/>
<path d="M44 151C40.6865 151 38 149.668 38 148.026V95.9744C38 94.3318 40.6865 93 44 93C47.3135 93 50 94.3318 50 95.9744V148.026C50 149.668 47.3135 151 44 151Z" fill="#F79CE4"/>
<path d="M44.1303 176.522C54.5757 176.522 63.0434 168.054 63.0434 157.609C63.0434 147.163 54.5757 138.696 44.1303 138.696C33.6849 138.696 25.2173 147.163 25.2173 157.609C25.2173 168.054 33.6849 176.522 44.1303 176.522Z" fill="#F79CE4"/>
<path d="M138.695 50.4348C135.213 50.4348 132.391 47.612 132.391 44.1304C132.391 26.7493 118.25 12.6087 100.869 12.6087C97.3873 12.6087 94.5649 9.78592 94.5649 6.30435C94.5649 2.82277 97.3873 0 100.869 0C125.203 0 145 19.7968 145 44.1304C145 47.612 142.177 50.4348 138.695 50.4348Z" fill="#FFEA20"/>
<path d="M116.63 50.4347C113.148 50.4347 110.326 47.612 110.326 44.1304C110.326 38.9163 106.083 34.6739 100.869 34.6739C97.3873 34.6739 94.5649 31.8511 94.5649 28.3695C94.5649 24.888 97.3873 22.0652 100.869 22.0652C113.036 22.0652 122.935 31.9638 122.935 44.1304C122.935 47.612 120.112 50.4347 116.63 50.4347Z" fill="#FFEA20"/>
<path d="M94.5729 56.7391C91.0913 56.7391 88.2666 53.9163 88.2666 50.4347C88.2666 46.9531 91.0874 44.1304 94.569 44.1304H94.5729C98.0549 44.1304 100.877 46.9531 100.877 50.4347C100.877 53.9163 98.0545 56.7391 94.5729 56.7391Z" fill="#FFEA20"/>
</svg>
