<svg width="67" height="58" viewBox="0 0 67 58" fill="none" xmlns="http://www.w3.org/2000/svg">
<path d="M36.573 12.9446C36.573 12.9446 32.4409 18.5685 28.5 19.9258C22.5744 21.9667 19.2323 15.1053 13.0001 15.7665C5.77381 16.5332 4.49994 23.5851 1 23.4258" stroke="#FFB171" stroke-width="3"/>
<path d="M46.573 23.3703C46.573 23.3703 42.4409 28.9943 38.5 30.3516C32.5744 32.3925 29.2323 25.5311 23.0001 26.1923C15.7738 26.9589 14.4999 34.0109 11 33.8516" stroke="#FFB171" stroke-width="3"/>
<path d="M65.573 34.3703C65.573 34.3703 61.4409 39.9943 57.5 41.3516C51.5744 43.3925 48.2323 36.5311 42.0001 37.1923C34.7738 37.9589 33.4999 45.0109 30 44.8516" stroke="#FFB171" stroke-width="3"/>
</svg>
