<svg width="67" height="59" viewBox="0 0 67 59" fill="none" xmlns="http://www.w3.org/2000/svg">
<path d="M36.573 13.5188C36.573 13.5188 32.4409 19.1428 28.5 20.5001C22.5744 22.5409 19.2323 15.6796 13.0001 16.3407C5.77381 17.1074 4.49994 24.1593 1 24" stroke="#94DFFF" stroke-width="3"/>
<path d="M46.573 23.9446C46.573 23.9446 42.4409 29.5685 38.5 30.9258C32.5744 32.9667 29.2323 26.1053 23.0001 26.7665C15.7738 27.5332 14.4999 34.5851 11 34.4258" stroke="#94DFFF" stroke-width="3"/>
<path d="M65.573 34.9446C65.573 34.9446 61.4409 40.5685 57.5 41.9258C51.5744 43.9667 48.2323 37.1053 42.0001 37.7665C34.7738 38.5332 33.4999 45.5851 30 45.4258" stroke="#94DFFF" stroke-width="3"/>
</svg>
